<?xml version="1.0" encoding="UTF-8"?>
<svg version="1.1" viewBox="0 0 2048 1152" width="175" height="88" xmlns="http://www.w3.org/2000/svg">
<path transform="translate(127,366)" d="m0 0h390l8 4 8 9 2 4v387l-4 8-5 6-8 4-8 1h-378l-8-2-8-6-6-9-1-5-1-80v-283l1-19 4-8 4-5z" fill="#FEFDFC"/>
<path transform="translate(435,581)" d="m0 0h57l7 1 1 125v28l-1 20-1 1-65 1-106-1-1-1v-69l1-1 67-1 22-1 7-2 9-8 3-8 1-8v-50l-2-3h-5l-1 1-1 51-3 7-6 7-7 3-9 1h-42l-34-1v-90l2-1z" fill="#27627B"/>
<path transform="translate(147,582)" d="m0 0h172v91l-15 1h-45l-24-1-7-3-6-5-3-7-1-7v-48h-7l-2 1-1 7v36l1 15 3 10 3 4v2l4 2 5 2 18 2 77 1v71l-102 1-70-1-1-13v-28z" fill="#27627B"/>
<path transform="translate(401,403)" d="m0 0h97l1 3v169l-142 1h-30l-1-1v-127l5 1 8 6 16 17 11 12 14 15 11 12 7 8 9 10 7 8 9 10 6 4h6l1-5-6-8-14-15-9-9-7-8-4-4v-2h-2l-7-8-11-12-14-15-7-8-10-11-3-2v-2l-4-2-12-8v-28z" fill="#28627B"/>
<path transform="translate(296,403)" d="m0 0h23l1 3v16l-1 10-10 6-8 7-7 8-15 16-7 8-16 17-12 13-9 10-15 16-8 8-3 5 1 5h7l7-6 7-8 9-10 11-12 7-8 16-17 11-12 12-13 11-12 9-6 2 1 1 52v53l-1 22h-172v-170l1-1z" fill="#27627B"/>
<path transform="translate(1636,437)" d="m0 0 10 2 5 4 3 7 2 18 6 95 1 26v18l-3 2h-8l-3-3-2-29-3-57-4-59-1-7-3-1-2 1-15 48-12 40-13 42-7 16-4 5-6 2-10-1-4-4-5-10-12-36-15-48-9-31-8-22-2-2h-3l-3 46-3 45-3 61-1 3h-12l-2-3v-19l3-54 5-75 2-10 5-6 6-3h11l8 7 5 11 6 18 16 53 13 38 6 18 3 6 4-8 13-37 16-51 9-30 6-15 6-8z" fill="#FEB720"/>
<path transform="translate(1036,436)" d="m0 0h28l14 3 12 5 11 7 10 9 8 9 8 14 5 13 3 15v25l-3 17-6 15-7 11-9 10-10 8-14 7-14 4-12 2h-24l-14-3-13-5-10-6-10-9-8-9-8-15-5-15-2-10-1-11v-11l3-19 5-13 7-13 9-11 10-9 14-8 13-5zm5 12-17 4-14 8-10 9-7 9-8 16-4 15-1 6v18l4 18 8 16 6 8 8 8 11 7 11 5 14 3h17l16-4 12-6 12-9 9-10 6-11 5-15 2-12v-14l-3-17-5-13-6-11-11-12-14-9-12-5-11-2z" fill="#29637B"/>
<path transform="translate(1202,436)" d="m0 0h16l19 2 12 4 11 7 8 9 4 8 2 8v11l-2 9-7 12-7 7-10 6-13 4v3l11 14 10 15 12 20 8 11 8 6 12 4 3 2v6l-4 5h-11l-10-4-10-9-10-14-15-26-11-16-9-10-6-3-5-1-23-1h-3l-1 82-6 2-7-2-1-11v-121l2-21 4-8 5-4 9-4zm-3 12-11 4-5 5-1 4-1 19v32l4 2h35l13-2 10-4 10-9 4-5 2-7v-14l-4-9-7-8-9-5-16-3z" fill="#29637B"/>
<path transform="translate(603,436)" d="m0 0 23 1 15 3 13 7 6 5 7 10 3 8v19l-4 10-6 9-10 8-8 4-8 2h-4l4 8 9 10 14 23 12 18 7 8 10 5 7 3 3 5-2 5-4 2h-11l-10-5-10-10-10-15-16-27-10-14-5-6-8-5-4-1-28-1v81l-2 2-9 1-2-2-1-4v-128l1-16 2-8 4-6 7-5 12-3zm-8 12-10 3-4 4-2 5-1 10v42l2 2h40l10-2 14-7 7-7 4-8 1-3v-13l-4-10-6-7-11-6-16-3z" fill="#2A637B"/>
<path transform="translate(1891,436)" d="m0 0h16l18 2 13 4 11 7 8 9 5 11 1 4v12l-4 13-6 9-9 8-10 5-7 2h-5l5 8 9 11 11 18 10 16 10 13 7 4 12 5 2 3-1 6-4 3h-11l-12-6-9-9-10-15-9-16-12-19-9-11-9-6-4-1h-27l-1 81-1 1h-11l-1-1v-147l2-9 4-6 8-5 10-3zm-4 12-11 4-3 3-2 7-1 18v31l1 2 3 1h35l13-2 8-3 8-6 7-8 3-7v-15l-4-9-7-8-10-5-16-3z" fill="#FEB720"/>
<path transform="translate(326,379)" d="m0 0h177l10 2 4 5 3 8 1 59v39l-1 84h-11l-4-1-1-34v-107l1-37h-178l-1-1z" fill="#28627B"/>
<path transform="translate(190,379)" d="m0 0h129l1 5-1 12-7 1h-171l-1 177-1 1h-14v-177l2-9 4-6 4-2 8-1z" fill="#2B647C"/>
<path transform="translate(1382,437)" d="m0 0h8l7 4 8 16 9 24 16 45 10 27 9 25 7 18 1 10-7 2-6-2-5-11-15-43-2-3-14-1h-57l-4 10-12 36-5 12-2 2-9-1-1-1 1-10 10-32 15-43 18-52 7-18 5-9 5-4zm3 14-4 4-14 40-13 38v2l9 1h54l1-2-12-36-13-37-4-8z" fill="#FEB720"/>
<path transform="translate(1751,437)" d="m0 0 9 1 6 5 7 15 11 30 10 28 11 30 15 41 5 15-1 5h-11l-5-8-10-28-7-20-2-3h-72l-3 11-15 45-3 4-9-1-2-1 1-9 13-40 11-31 10-29 15-43 7-13 5-3zm2 14-4 4-18 50-10 30 64 1-1-7-18-53-8-21-3-4z" fill="#FFB720"/>
<path transform="translate(505,582)" d="m0 0h15v170l-1 11-3 6-5 4-6 2-48 1h-126l-4-1v-13h178z" fill="#29637B"/>
<path transform="translate(125,582)" d="m0 0h14l1 1v178l2 1h177l1 12-1 1h-177l-9-2-5-4-2-6-1-18z" fill="#2B647C"/>
<path transform="translate(748,438)" d="m0 0h65l3 3v7l-2 2-60 1-12 2-4 1-1 6-1 16v32l51 1 18 1v11l-1 1-68 1v52l2 12 3 5 5 2 7 1 67 1 2 5v6l-11 1h-58l-15-2-6-3-6-7-3-8-1-9v-119l2-8 4-6 6-5 5-2z" fill="#2A637C"/>
<path transform="translate(879,438)" d="m0 0h67l2 6-1 6-63 1-9 2-4 3-2 10-1 45h57l9 1 1 1v7l-1 3-66 1v59l-1 24h-11l-2-3v-137l2-13 6-9 5-4 5-2z" fill="#2A647C"/>
<path transform="translate(1820,669)" d="m0 0 3 3v60l-4 1-2-2-1-45-7 10-10 18-7 10h-3l-6-9-13-22-5-7v33l-1 13-5 1-1-1-1-8v-51l2-3 5 1 6 9 15 26 5 8 4-5 9-15 8-13 6-9z" fill="#30677F"/>
<path transform="translate(1039,670)" d="m0 0h24l14 2 8 4 8 9 4 10v10l-3 10-6 9-9 6-13 3h-26l-3-3v-58zm6 6-1 1v47l2 3h23l11-4 7-8 2-5 1-10-2-10-5-7-8-5-9-2z" fill="#2E657D"/>
<path transform="translate(1599,670)" d="m0 0h15l11 4 9 8 4 8 2 8-1 12-5 10-8 8-8 4-9 2h-8l-10-3-8-6-6-7-4-11v-10l4-11 7-9 10-6zm-1 6-8 4-6 7-4 11v8l4 10 6 7 10 4h13l10-5 6-7 3-7v-14l-4-8-8-7-8-3z" fill="#31687F"/>
<path transform="translate(1341,670)" d="m0 0h22l14 2 7 4 4 7 1 12-3 9-7 6-2 1 1 4 10 14 1 5-4-1-5-4-9-12-5-3-19-1v18l-2 2-5-1-1-28v-14l1-19zm6 6v30h26l6-4 3-4v-12l-3-5-4-3-8-2z" fill="#396E84"/>
<path transform="translate(732,670)" d="m0 0h12l8 2 8 5 7 8 4 9v12l-3 10-7 9-9 6-11 3h-9l-11-4-8-6-6-9-3-10v-7l4-11 4-6 8-7 6-3zm-1 6-8 3-5 4-6 12-1 10 4 11 5 6 12 5h13l8-4 5-5 4-6 2-12-2-9-4-6-7-6-8-3z" fill="#31687F"/>
<path transform="translate(1675,670)" d="m0 0h21l14 2 7 4 4 6 1 3v14l-6 9-6 4 3 5 9 13 1 4-5-1-10-11-5-6-7-2-15-1v17l-2 3-4-1-1-1-1-16v-43zm7 6-2 7v18l1 5 21 1 7-2 5-4 2-6-1-10-3-5-7-3-5-1z" fill="#4A7486"/>
<path transform="translate(807,670)" d="m0 0 6 3 18 22 14 18 5 6 1-48 5-1 1 1 1 60-1 2-5-1-10-11-8-10-13-16-7-9-1-1-2 47-5 1-1-2-1-59z" fill="#2C647C"/>
<path transform="translate(917,670)" d="m0 0h16l9 3 5 6 1 5-5-2-8-4-3-1h-16l-8 4-5 6-3 8v14l5 10 5 4 9 3h14l6-4 2-6v-13l2-4 3 1 2 5v17l-4 6-10 5-5 1h-10l-11-4-8-6-6-9-3-10v-8l4-11 9-10 8-5z" fill="#497385"/>
<path transform="translate(1424,670)" d="m0 0h41l2 1v5h-36v21l34 2v4h-34l1 24h35l1 1v5h-43l-1-2-1-54z" fill="#497385"/>
<path transform="translate(159,414)" d="m0 0h9l12 5 9 8 10 13 3 6v7l-3 3-5 1-10-5-13-9-6-7-5-11-1-3z" fill="#FFB720"/>
<path transform="translate(448,698)" d="m0 0 9 2 10 5 8 8 6 9 3 9 1 7-2 2h-7l-12-5-11-11-9-14-2-4 1-6z" fill="#FFB720"/>
<path transform="translate(482,415)" d="m0 0 5 1-2 10-6 11-10 11-17 12-8-2-2-2v-7l7-11 8-9 14-10z" fill="#FFB720"/>
<path transform="translate(1884,668)" d="m0 0 4 2 8 16 15 33 5 14-3 1-5-5-6-12-28-1h-7l-2 6-5 9-3 3h-2l1-8 8-18 11-25 7-13zm0 11-5 8-8 20v3l2 1h26l-1-6-10-23-2-3z" fill="#2E667E"/>
<path transform="translate(597,668)" d="m0 0h2l12 23 9 21 7 17 1 5-4-1-5-6-5-10-14-1h-21l-2 6-6 11-4 1 1-7 7-17 13-29 7-11zm1 11-6 7-10 23 1 2h28l-1-7-8-19-3-6z" fill="#356A81"/>
<path transform="translate(1151,669)" d="m0 0 4 1 5 8 18 41 5 13v2l-4-1-5-6-5-9v-2h-34l-8 16-5 2v-6l15-33 8-17zm1 10-6 10-8 18v3l5 1h24l-5-14-7-16z" fill="#30677E"/>
<path transform="translate(1957,670)" d="m0 0h13l12 3 3 4v2l-9-1-9-2h-9l-6 3-2 3v8l1 4 5 2 16 4 9 4 7 8-1 9-6 8-8 4-4 1h-10l-12-4-6-4-1-4 2-1 15 5 5 1h7l6-3 4-5-1-7-5-4-20-6-6-4-4-5-1-2v-9l4-6 5-4z" fill="#31687F"/>
<path transform="translate(192,698)" d="m0 0 7 1 4 4-1 5-8 12-11 12-11 7-8 3-5-1 1-9 6-12 11-12 11-8z" fill="#FFB720"/>
<path transform="translate(1223,670)" d="m0 0h15l9 2 5 4v3l-7-1-10-2h-10l-6 3-2 4v8l4 4 8 3 16 4 8 6 2 3v9l-6 8-8 5-4 1h-10l-13-4-5-4v-4l6 1 14 4h8l6-3 4-5-1-7-5-4-9-3-12-3-8-6-3-5 1-10 6-8z" fill="#50798A"/>
<path transform="translate(1504,670)" d="m0 0h42l1 5-4 2-32-1-1 24h32l1 4-1 2-31 1-1 25-4 1-2-2-1-9v-43z" fill="#2F677E"/>
<path transform="translate(1346,676)" d="m0 0h1v30l26-1 5-2 9-2-2 4-6 5-2 1 1 4 10 14 1 5-4-1-5-4-9-12-5-3-19-1v18l-2 2-5-1v-27l2 4 3-2z" fill="#4B7486"/>
<path transform="translate(1759,670)" d="m0 0 5 1 6 9 7 12-2 1 2 6 6 8 3 11-3-3-13-22-5-7v33l-1 13-5 1-1-1-1-8v-51z" fill="#4B7586"/>
<path transform="translate(1631,683)" d="m0 0 5 2 4 13-1 12-5 10-8 8-8 4-9 2h-8l-10-3-8-8 1-3 16 6h13l10-5 5-6 3-7v-14l-2-5 1-5z" fill="#2D657D"/>
<path transform="translate(732,670)" d="m0 0h12l8 2 8 5 7 8 3 7-1 5-4 1-4-7-4-6-8-6-6-2h-12l-8 3-5 5-5 10-2 9h-1l-1-14-1-3 4-6 8-7 6-3z" fill="#2E667D"/>
<path transform="translate(943,699)" d="m0 0 3 1 2 5v17l-4 6-10 5-5 1h-10l-11-4-8-6-6-9 2-12 2 2v13h2l1-3 4 6 6 5h22l6-4 2-6v-13z" fill="#2E657D"/>
<path transform="translate(125,582)" d="m0 0 2 1 1 2v121l-1 57h-1l-1-18z" fill="#497385"/>
<path transform="translate(1675,670)" d="m0 0h21l14 2 7 4 4 6 1 3v14l-5 5-4 2h-3v-3l4-4 1-10-3-8-7-3-5-1-20-1-1 5-2-3-2 1-1-2v-6z" fill="#356B81"/>
<path transform="translate(327,773)" d="m0 0h182l-4 2-48 1h-126l-4-1z" fill="#497385"/>
<path transform="translate(519,394)" d="m0 0h1l1 59v39l-1 84h-11v-1h10l-1-67-3-13v-24l2-14 1-2z" fill="#497385"/>
<path transform="translate(1037,672)" d="m0 0h1l1 5 5-2h26l1 2h-26l-1 46-4-4-1-2-1 13h-1z" fill="#497385"/>
<path transform="translate(207,414)" d="m0 0 10 2 3 3 1 4-2 7-4 5-6 2-5-5-3-5-1-7z" fill="#FFB720"/>
<path transform="translate(326,379)" d="m0 0h177l10 2 4 5 1 4-5-1-6-5-3-1-33-1-12-1-133-1z" fill="#497385"/>
<path transform="translate(1424,670)" d="m0 0h41l2 1v5h-36l-1 9-5 1h-1l-1-9z" fill="#30677E"/>
<path transform="translate(595,678)" d="m0 0 2 3-4 5-10 23-5 4-1 2 3-1 3 2h-4l-2 6-6 11-4 1 1-7 7-17 10-22h2l1-4z" fill="#2F667E"/>
<path transform="translate(474,679)" d="m0 0h5l2 3v16l-4 2-8-1-5-4-3-5 1-4 9-6z" fill="#FFB720"/>
<path transform="translate(165,453)" d="m0 0 9 2 7 4 2 5-4 6-8 5h-7l-1-5v-12z" fill="#FFB720"/>
<path transform="translate(1038,716)" d="m0 0 5 5 3 5h23l9-3 5 1v4l-11 4-6 1h-26l-2-1z" fill="#2C657C"/>
<path transform="translate(1979,703)" d="m0 0 7 6 2 3-1 9-6 8-8 4-4 1h-10l-12-4-6-4-1-4 2-1 15 5 5 1h7l6-2v2l-2 1 6-1 2-3v-3l3-5-1-6-6-4 2-1z" fill="#527A8B"/>
<path transform="translate(431,418)" d="m0 0h10l4 3-1 8-6 7-6 1-6-3-1-2v-10l3-3z" fill="#FFB720"/>
<path transform="translate(476,455)" d="m0 0 3 1 3 7v9l-4 4-8-1-6-4-2-3 1-5 9-7z" fill="#FFB720"/>
<path transform="translate(1252,714)" d="m0 0 3 1-1 7-6 7-7 4-4 1h-10l-13-4-5-4v-4l6 1 14 4h8l11-5h3l-2-3v-3z" fill="#31687F"/>
<path transform="translate(209,719)" d="m0 0 5 1 4 5 1 4v7l-2 2-9 1-9-3-1-2 4-8 5-6z" fill="#FFB720"/>
<path transform="translate(435,717)" d="m0 0 5 2 5 10v6l-6 2h-13l-1-1v-8l8-10z" fill="#FFB720"/>
<path transform="translate(1820,669)" d="m0 0 3 3v60h-3l-1-2-1-12v-47z" fill="#28627B"/>
<path transform="translate(167,681)" d="m0 0 7 1 7 5 2 4-4 6-9 4h-5l-1-1v-16z" fill="#FFB720"/>
<path transform="translate(519,582)" d="m0 0h1v170h-1l-1-26v-68l-1-9-1-10v-13l1-9 1-1z" fill="#497385"/>
<path transform="translate(1093,687)" d="m0 0 2 3 2 5v10l-3 10-6 9-4 2-4-4 6-7 2-5 1-7 3-5v-7z" fill="#4C7587"/>
<path transform="translate(917,670)" d="m0 0h16l9 3 5 6 1 5-5-2-8-4-3-1-23-1 5-5z" fill="#2E657D"/>
<path transform="translate(1223,670)" d="m0 0h15l9 2 5 4v3l-7-1-10-2h-10l-6 3-4-1v-4z" fill="#3F6F83"/>
<path transform="translate(1675,670)" d="m0 0h21l14 2v1l-9 1v2l2 1-23-1-1 5-2-3-2 1-1-2v-6z" fill="#497385"/>
<path transform="translate(770,694)" d="m0 0h1v12l-3 10-5 7-2-4-3-2 4-8 1-9v-5l3 2 3-1z" fill="#497385"/>
<path transform="translate(1514,700)" d="m0 0h28l1 4-1 2h-28l-2-5z" fill="#30667E"/>
<path transform="translate(1673,672)" d="m0 0h1l1 5 4 1 1-2 2 1-1 6v21l-2-1v-3l-6-1z" fill="#4B7486"/>
<path transform="translate(1765,675)" d="m0 0 3 1 9 16-2 1 2 6 6 8 3 11-3-3-13-22-5-7z" fill="#4D7687"/>
<path transform="translate(1599,670)" d="m0 0h15l11 4 9 8v2l-4 1-2 2-8-7-8-3 1-5-14-1z" fill="#4B7486"/>
<path transform="translate(597,668)" d="m0 0h2l12 23 2 5-1 3-8-16-3-2 1-4h-2l-1 3-4-1-5 5h-2l-1 4-2-1 9-16z" fill="#33687E"/>
<path transform="translate(1137,707)" d="m0 0 1 3h5l-3 1-1 4-4 1-8 16-5 2v-6l7-16 2 2 3-4h2z" fill="#497385"/>
<path transform="translate(943,699)" d="m0 0 3 1 2 5v17l-3 5-1-2v-7l-3 1v-16z" fill="#4C7587"/>
<path transform="translate(1433,698)" d="m0 0h18l14 1v4h-28l-4-4z" fill="#356C83"/>
<path transform="translate(1905,708)" d="m0 0 3 4 7 17 1 5-4-1-4-4-3-6v-3h2l-1-7z" fill="#4E7788"/>
<path transform="translate(1230,670)" d="m0 0h8l9 2 5 4v3l-7-1-10-2-1-4z" fill="#4C7587"/>
<path transform="translate(1967,671)" d="m0 0h9l7 3 2 5-9-1-11-3z" fill="#628B9C"/>
<path transform="translate(1817,672)" d="m0 0h1l1 46 1 14 2 1-4-1-1-1-1-54 1-2-2-1z" fill="#4C7587"/>
<path transform="translate(1140,711)" d="m0 0 25 1 2 3h-28z" fill="#27627B"/>
<path transform="translate(934,671)" d="m0 0 6 1 6 5 2 7-5-2-8-4-3-2 3-2z" fill="#4D7687"/>
<path transform="translate(667,464)" d="m0 0 2 3 1 3v19l-3 9h-1z" fill="#4F7889"/>
<path transform="translate(770,694)" d="m0 0h1v12l-1 4h-2l-2-4-3-1v-10l3 2 3-1z" fill="#4D7688"/>
<path transform="translate(1674,699)" d="m0 0 5 1 3 6-1 5-6 2-1-5z" fill="#27627B"/>
<path transform="translate(1504,670)" d="m0 0h42l1 5-4 2-3-2 1-4h-37z" fill="#497385"/>
<path transform="translate(1762,708)" d="m0 0h1l1 20-4-1-1-1v-13z" fill="#27627B"/>
<path transform="translate(1757,700)" d="m0 0h1l1 13 1 2v11l4 2-1 5-5-1-1-8z" fill="#86A1AD"/>
<path transform="translate(601,673)" d="m0 0 3 4 9 19-1 3-8-16-3-2 1-4h-2l-1 3h-3l1-3h2z" fill="#51798A"/>
<path transform="translate(851,671)" d="m0 0h1v54h-2l-3-6 1-2 2 2z" fill="#497385"/>
<path transform="translate(1674,671)" d="m0 0h9l2 2-2 3h-3l-1 5-2-3-2 1-1-2z" fill="#27627B"/>
<path transform="translate(1712,723)" d="m0 0 7 2 4 7v2l-5-1-6-6z" fill="#396C82"/>
<path transform="translate(1761,672)" d="m0 0 4 2 1 2v8h-4v-2h-2v-8z" fill="#27627B"/>
<path transform="translate(1242,703)" d="m0 0h5l6 5 1 4-4 1-5-5z" fill="#2A637C"/>
<path transform="translate(1588,674)" d="m0 0v3l-2 6-5 4-5 3 2-5 6-8z" fill="#4C7587"/>
<path transform="translate(1510,700)" d="m0 0 4 1v3 2l-3 1-1 25h-1v-28z" fill="#507889"/>
<path transform="translate(1950,725)" d="m0 0 7 1 9 2v2l4-1v2h-9l-10-4z" fill="#2E657D"/>
<path transform="translate(1227,670)" d="m0 0 7 1v4h-9l-3-3z" fill="#2C647C"/>
<path transform="translate(1884,668)" d="m0 0 4 2 6 11-1 2-2-5-4-2-2-4-3-1z" fill="#7393A1"/>
<path transform="translate(1774,692)" d="m0 0 5 3 5 9v2l-4-2-5-6z" fill="#2D657C"/>
<path transform="translate(593,673)" d="m0 0 2 2 2-1-2 4-5 6h-2l-1 4-2-1z" fill="#658897"/>
<path transform="translate(942,701)" d="m0 0 3 1v8l-2 5-2-3v-9z" fill="#32687F"/>
<path transform="translate(707,707)" d="m0 0 2 3 4 10 1 4-5-5-4-9v-2z" fill="#628696"/>
<path transform="translate(805,724)" d="m0 0 1 4h2l2-4h1v8l-5 1-1-2z" fill="#497385"/>
<path transform="translate(764,705)" d="m0 0 4 2-1 8-2 1-2-1z" fill="#27627B"/>
<path transform="translate(1763,689)" d="m0 0h1v15h-2v-8h-2v-6z" fill="#27627B"/>
<path transform="translate(1957,670)" d="m0 0h13l-3 1-2 4h-6v-3z" fill="#477386"/>
<path transform="translate(1973,701)" d="m0 0 6 2-4 2-7 1-5-1 3-2z" fill="#497385"/>
<path transform="translate(1217,694)" d="m0 0 4 1 7 5-1 3h-4l-1-4-5-3z" fill="#2C647C"/>
<path transform="translate(1541,670)" d="m0 0h5l1 5-4 2-3-2z" fill="#5D8292"/>
<path transform="translate(1577,716)" d="m0 0 6 2 2 6 3 4-4-2-7-8z" fill="#4E7688"/>
<path transform="translate(1176,726)" d="m0 0 4 1 3 5v2l-4-1-3-3z" fill="#2E657D"/>
<path transform="translate(1177,719)" d="m0 0 2 2 2 7-5-2-1 3-2-6h3z" fill="#497385"/>
<path transform="translate(901,716)" d="m0 0 3 1 5 5 7 3v2h-5l-9-8z" fill="#537B8C"/>
<path transform="translate(1166,707)" d="m0 0 3 3-1 4-3-1-18-1v-1l19-1z" fill="#497385"/>
<path transform="translate(1817,718)" d="m0 0h2l1 14 2 1-4-1-1-1z" fill="#497385"/>
<path transform="translate(1635,715)" d="m0 0v3l-7 8-4 2 6-9h2z" fill="#497385"/>
</svg>
